<svg xmlns="http://www.w3.org/2000/svg" width="35" height="35" viewBox="0 0 35 35" fill="none"><g id="Group 1000002181"><path id="Path 5650" opacity="0.05" d="M17.5 0C27.165 0 35 7.83502 35 17.5C35 27.165 27.165 35 17.5 35C7.83502 35 0 27.165 0 17.5C0 7.83502 7.83502 0 17.5 0Z" fill="white"></path><path id="Path 5649" fill-rule="evenodd" clip-rule="evenodd" d="M19.1357 21.6719C18.4293 20.3063 18.0762 18.823 18.0762 17.222C18.0762 15.5975 18.5059 14.2555 19.3652 13.196C20.2246 12.1365 21.5607 11.6068 23.3736 11.6068V13.8317C22.7379 13.8317 22.2729 13.973 21.9786 14.2555C21.6843 14.538 21.5372 15.0795 21.5372 15.88V16.2332H24.1152V21.6719H19.1357ZM11.8251 21.6719C11.1188 20.3063 10.7656 18.823 10.7656 17.222C10.7656 15.5975 11.1953 14.2555 12.0547 13.196C12.914 12.1365 14.2501 11.6068 16.063 11.6068V13.8317C15.4274 13.8317 14.9624 13.973 14.6681 14.2555C14.3738 14.538 14.2266 15.0795 14.2266 15.88V16.2332H16.8047V21.6719H11.8251Z" fill="#747681"></path></g></svg>